<mxfile host="app.diagrams.net" modified="2023-11-26T22:54:51.342Z" agent="Mozilla/5.0 (Macintosh; Intel Mac OS X 10_15_7) AppleWebKit/537.36 (KHTML, like Gecko) Chrome/116.0.0.0 Safari/537.36" version="22.1.4" etag="hdPtNVxfY_xM0sO_liAt" type="github">
  <diagram name="Page-1" id="JSRyKgpzZIkBRNkuk8mu">
    <mxGraphModel>
      <root>
        <mxCell id="0" />
        <mxCell id="1" parent="0" />
      </root>
    </mxGraphModel>
  </diagram>
</mxfile>
